<svg width="32" height="32" viewBox="0 0 32 32" fill="none" xmlns="http://www.w3.org/2000/svg">
  <!-- Background with gradient -->
  <defs>
    <linearGradient id="bgGradient" x1="0%" y1="0%" x2="100%" y2="100%">
      <stop offset="0%" style="stop-color:#1a1a1a;stop-opacity:1" />
      <stop offset="100%" style="stop-color:#2d2d2d;stop-opacity:1" />
    </linearGradient>
    <linearGradient id="plantGradient" x1="0%" y1="0%" x2="100%" y2="100%">
      <stop offset="0%" style="stop-color:#22c55e;stop-opacity:1" />
      <stop offset="100%" style="stop-color:#16a34a;stop-opacity:1" />
    </linearGradient>
  </defs>
  
  <!-- Background -->
  <rect width="32" height="32" rx="8" fill="url(#bgGradient)"/>
  
  <!-- Soil/ground -->
  <rect x="4" y="24" width="24" height="4" rx="2" fill="#8b5cf6"/>
  
  <!-- Main plant stem -->
  <rect x="15" y="12" width="2" height="12" fill="url(#plantGradient)"/>
  
  <!-- Plant leaves -->
  <ellipse cx="12" cy="16" rx="3" ry="2" fill="#22c55e" transform="rotate(-30 12 16)"/>
  <ellipse cx="20" cy="16" rx="3" ry="2" fill="#22c55e" transform="rotate(30 20 16)"/>
  <ellipse cx="12" cy="20" rx="2.5" ry="1.5" fill="#16a34a" transform="rotate(-45 12 20)"/>
  <ellipse cx="20" cy="20" rx="2.5" ry="1.5" fill="#16a34a" transform="rotate(45 20 20)"/>
  
  <!-- Small seedling on the right -->
  <rect x="24" y="18" width="1" height="6" fill="#22c55e"/>
  <circle cx="24" cy="16" r="1.5" fill="#22c55e"/>
  
  <!-- Privacy indicator (small lock) -->
  <rect x="6" y="8" width="4" height="3" rx="0.5" fill="#3b82f6"/>
  <rect x="7" y="9" width="2" height="2" fill="#ffffff"/>
</svg>
